<svg width="146.43" height="60" viewBox="0 0 136 56" fill="none" xmlns="http://www.w3.org/2000/svg">
<path d="M33.703 16.8515C33.703 13.1664 32.495 9.58297 30.2642 6.64991C28.0333 3.71685 24.9025 1.5959 21.3513 0.611894C17.8 -0.372113 14.0242 -0.164929 10.6019 1.20172C7.17964 2.56836 4.29969 5.01912 2.40314 8.17866C0.506585 11.3382 -0.302019 15.0323 0.101167 18.6952C0.504353 22.3581 2.0971 25.7879 4.63548 28.4593C7.17385 31.1307 10.5179 32.8963 14.1555 33.4859C17.7931 34.0755 21.5236 33.4564 24.7758 31.7235L19.9648 22.6944C18.6871 23.3752 17.2214 23.6185 15.7923 23.3868C14.3631 23.1552 13.0493 22.4615 12.052 21.412C11.0548 20.3624 10.429 19.0149 10.2706 17.5759C10.1122 16.1368 10.4299 14.6854 11.175 13.4441C11.9201 12.2028 13.0516 11.2399 14.3961 10.703C15.7407 10.1661 17.2242 10.0847 18.6194 10.4713C20.0146 10.8579 21.2446 11.6911 22.1211 12.8435C22.9975 13.9958 23.4721 15.4037 23.4721 16.8515H33.703Z" fill="url(#paint0_linear_1324_763)"/>
<path d="M84.5127 27.6206C83.6555 31.0403 83.8238 34.5729 84.9962 37.7717C86.1687 40.9705 88.2926 43.6918 91.0994 45.5915C93.9063 47.4912 97.27 48.484 100.765 48.4443C104.26 48.4046 107.73 47.3343 110.736 45.3686C113.741 43.4029 116.147 40.6301 117.65 37.401C119.153 34.1719 119.684 30.6313 119.178 27.2271C118.671 23.823 117.149 20.708 114.804 18.2762C112.459 15.8444 109.396 14.205 106.003 13.5652L103.285 24.4082C104.55 24.6467 105.692 25.258 106.567 26.1648C107.441 27.0716 108.009 28.2331 108.198 29.5024C108.387 30.7718 108.188 32.092 107.628 33.2961C107.068 34.5002 106.17 35.5341 105.05 36.2671C103.929 37 102.635 37.3991 101.332 37.4139C100.029 37.4287 98.7744 37.0585 97.7277 36.3502C96.6811 35.6418 95.8891 34.6271 95.452 33.4343C95.0148 32.2415 94.952 30.9243 95.2717 29.6492C91.07 28.857 88.7143 28.4128 84.5127 27.6206Z" fill="url(#paint1_linear_1324_763)"/>
<path d="M35.4308 32.4922C34.0668 32.4922 33.0925 32.2243 32.5079 31.6884C31.9233 31.1525 31.631 30.3853 31.631 29.3866C31.631 28.8507 31.6797 27.9008 31.7772 26.5367C31.8746 25.1727 31.9842 23.6382 32.106 21.9332H25.6025L24.8718 31.9441C24.8474 32.139 24.7987 32.2851 24.7256 32.3826C24.6525 32.4557 24.5064 32.4922 24.2872 32.4922H22.2777C20.9136 32.4922 19.9393 32.2243 19.3548 31.6884C18.7702 31.1525 18.4779 30.3853 18.4779 29.3866C18.4779 28.8994 18.5144 28.0713 18.5875 26.9021C18.6606 25.7086 18.758 24.3567 18.8798 22.8466C19.0016 21.3364 19.1234 19.741 19.2451 18.0603C19.3669 16.3796 19.4887 14.7964 19.6105 13.3105C19.7323 11.8247 19.8297 10.5216 19.9028 9.40115C19.9759 8.28069 20.0124 7.51343 20.0124 7.09935C20.0124 6.73398 20.2073 6.5513 20.597 6.5513H22.6065C24.0923 6.5513 25.091 6.86795 25.6025 7.50125C26.114 8.13455 26.3698 9.07232 26.3698 10.3146C26.3698 10.5094 26.3332 11.2036 26.2601 12.3971C26.1871 13.5663 26.0896 14.979 25.9679 16.6354H32.5079C32.581 15.5636 32.654 14.5162 32.7271 13.4932C32.8245 12.4702 32.8976 11.5324 32.9463 10.6799C33.0194 9.8274 33.0681 9.09668 33.0925 8.48774C33.1412 7.85444 33.1655 7.39164 33.1655 7.09935C33.1655 6.73398 33.3604 6.5513 33.7501 6.5513H35.7596C37.2454 6.5513 38.2441 6.86795 38.7556 7.50125C39.2671 8.13455 39.5229 9.07232 39.5229 10.3146C39.5229 10.4363 39.4985 10.8261 39.4498 11.4837C39.4254 12.1414 39.3767 12.9695 39.3037 13.9682C39.2306 14.9669 39.1453 16.0873 39.0479 17.3296C38.9748 18.5474 38.8896 19.8019 38.7922 21.0928C38.7191 22.3838 38.6338 23.6504 38.5364 24.8926C38.4633 26.1105 38.3903 27.2188 38.3172 28.2174C38.2441 29.2161 38.1832 30.0564 38.1345 30.7384C38.0858 31.3961 38.0492 31.798 38.0249 31.9441C38.0005 32.139 37.9518 32.2851 37.8787 32.3826C37.8057 32.4557 37.6595 32.4922 37.4403 32.4922H35.4308ZM49.7103 15.5027C49.7103 16.0142 49.6616 16.7328 49.5641 17.6584C49.4911 18.584 49.4058 19.5461 49.3084 20.5448C49.2353 21.5434 49.15 22.4812 49.0526 23.3581C48.9795 24.2349 48.943 24.8682 48.943 25.258C48.943 26.1105 49.15 26.7803 49.5641 27.2675C50.0026 27.7303 50.5993 27.9617 51.3544 27.9617C52.0121 27.9617 52.5601 27.7059 52.9986 27.1944C53.4613 26.6585 53.8267 25.9765 54.0946 25.1484C54.3869 24.2958 54.6183 23.3337 54.7888 22.262C54.9593 21.1902 55.0811 20.1063 55.1542 19.0102C55.2516 17.9141 55.3247 16.8546 55.3734 15.8316C55.4465 14.7842 55.5196 13.883 55.5926 13.1279C55.617 12.933 55.6901 12.7625 55.8119 12.6164C55.9336 12.4702 56.1285 12.3971 56.3964 12.3971H57.7118C58.4668 12.3971 59.0758 12.4824 59.5386 12.6529C60.0257 12.799 60.4033 13.0183 60.6712 13.3105C60.9635 13.6028 61.1584 13.9682 61.2558 14.4066C61.3776 14.8207 61.4385 15.3079 61.4385 15.8681C61.4385 16.2335 61.4141 16.7572 61.3654 17.4392C61.341 18.0968 61.2802 19.0224 61.1827 20.2159C61.0853 21.3851 60.9635 22.8831 60.8174 24.7099C60.6956 26.5124 60.5372 28.7533 60.3424 31.4326C60.2937 31.9441 60.2328 32.2486 60.1597 32.346C60.111 32.4435 59.9161 32.4922 59.5751 32.4922H58.1502C57.4195 32.4922 56.8105 32.4069 56.3234 32.2364C55.8606 32.0659 55.483 31.8467 55.1907 31.5788C54.8984 31.3108 54.6914 30.9942 54.5696 30.6288C54.4478 30.2635 54.3748 29.8859 54.3504 29.4962C53.985 30.1295 53.571 30.6654 53.1082 31.1038C52.6697 31.5422 52.2069 31.8954 51.7198 32.1634C51.2326 32.4069 50.7333 32.5774 50.2218 32.6749C49.7103 32.7967 49.2109 32.8576 48.7238 32.8576C47.7982 32.8576 46.97 32.7114 46.2393 32.4191C45.5086 32.1025 44.8875 31.6884 44.3759 31.1769C43.8888 30.6654 43.5113 30.0564 43.2433 29.3501C42.9754 28.6437 42.8414 27.8886 42.8414 27.0848C42.8414 26.7681 42.8536 26.2566 42.878 25.5503C42.9267 24.8195 42.9754 24.0036 43.0241 23.1023C43.0972 22.2011 43.1702 21.2511 43.2433 20.2525C43.3164 19.2295 43.3773 18.2673 43.426 17.3661C43.4991 16.4649 43.56 15.6732 43.6087 14.9912C43.6818 14.3092 43.7305 13.8221 43.7548 13.5298C43.8035 13.0913 43.901 12.799 44.0471 12.6529C44.1933 12.4824 44.4368 12.3971 44.7779 12.3971H45.947C46.7021 12.3971 47.3232 12.4702 47.8104 12.6164C48.2975 12.7625 48.6751 12.9695 48.943 13.2375C49.2353 13.5054 49.4302 13.8342 49.5276 14.224C49.6494 14.5893 49.7103 15.0156 49.7103 15.5027ZM73.1524 12.0318C75.2228 12.0318 76.7452 12.4459 77.7195 13.274C78.6938 14.0778 79.1809 15.113 79.1809 16.3796C79.1809 17.4513 78.8399 18.2673 78.1579 18.8276C77.5002 19.3878 76.5381 19.6679 75.2715 19.6679C74.9305 19.6679 74.6991 19.6314 74.5773 19.5583C74.4555 19.4852 74.3946 19.3512 74.3946 19.1564C74.3946 18.9372 74.3703 18.6936 74.3216 18.4257C74.2972 18.1334 74.212 17.8654 74.0658 17.6218C73.944 17.3539 73.737 17.1347 73.4447 16.9642C73.1768 16.7937 72.787 16.7084 72.2755 16.7084C71.5935 16.7084 71.0455 16.8789 70.6314 17.2199C70.2173 17.5366 70.0103 17.9385 70.0103 18.4257C70.0103 18.9372 70.2173 19.3512 70.6314 19.6679C71.0698 19.9602 71.6057 20.2403 72.239 20.5082C72.8966 20.7762 73.603 21.0563 74.3581 21.3486C75.1132 21.6165 75.8074 21.9819 76.4407 22.4447C77.0983 22.9075 77.6342 23.492 78.0483 24.1984C78.4867 24.8804 78.7059 25.7695 78.7059 26.8656C78.7059 28.6193 78.0848 30.0564 76.8426 31.1769C75.6003 32.2973 73.737 32.8576 71.2525 32.8576C70.5705 32.8576 69.7789 32.7967 68.8776 32.6749C68.0008 32.5774 67.1604 32.4191 66.3566 32.1999C65.5528 31.9563 64.8708 31.6397 64.3106 31.2499C63.7747 30.8602 63.5068 30.3731 63.5068 29.7885C63.5068 29.5693 63.5433 29.3013 63.6164 28.9847C63.7138 28.668 63.8478 28.3636 64.0183 28.0713C64.2132 27.779 64.4324 27.5354 64.6759 27.3405C64.9439 27.1213 65.2605 27.0117 65.6259 27.0117C65.9182 27.0117 66.1861 27.0848 66.4297 27.2309C66.6733 27.3771 66.9534 27.5354 67.27 27.7059C67.611 27.8521 68.0251 27.9982 68.5123 28.1443C68.9994 28.2905 69.6449 28.3636 70.4487 28.3636C71.0576 28.3636 71.5935 28.2905 72.0563 28.1443C72.5435 27.9982 72.787 27.6694 72.787 27.1579C72.787 26.6951 72.5922 26.3297 72.2025 26.0618C71.8127 25.7695 71.3134 25.5015 70.7045 25.258C70.1199 25.0144 69.4744 24.7586 68.768 24.4907C68.086 24.1984 67.4405 23.8209 66.8316 23.3581C66.247 22.8953 65.7599 22.3107 65.3701 21.6043C64.9804 20.8736 64.7856 19.9358 64.7856 18.791C64.7856 17.5488 65.0291 16.5014 65.5163 15.6489C66.0278 14.772 66.6733 14.0656 67.4527 13.5298C68.2565 12.9939 69.1578 12.6164 70.1564 12.3971C71.1551 12.1536 72.1537 12.0318 73.1524 12.0318ZM80.7055 27.9982C80.7055 25.806 81.6919 24.0888 83.6649 22.8466C85.6379 21.6043 88.5486 20.9345 92.3971 20.8371C92.4215 20.5691 92.4337 20.3499 92.4337 20.1794C92.458 19.9845 92.4702 19.7531 92.4702 19.4852C92.4702 18.7058 92.3241 18.0846 92.0318 17.6218C91.7395 17.1591 91.1305 16.9277 90.2049 16.9277C89.6934 16.9277 89.2793 17.0007 88.9627 17.1469C88.646 17.293 88.3903 17.5001 88.1954 17.768C88.0006 18.0116 87.8422 18.316 87.7205 18.6814C87.5987 19.0468 87.4891 19.4487 87.3916 19.8871C87.3429 20.1063 87.2333 20.2525 87.0628 20.3255C86.8923 20.3743 86.6244 20.3986 86.259 20.3986C83.7745 20.3986 82.5323 19.4609 82.5323 17.5853C82.5323 16.8302 82.7028 16.1117 83.0438 15.4297C83.4092 14.7476 83.9328 14.1631 84.6149 13.6759C85.3212 13.1644 86.1981 12.7625 87.2455 12.4702C88.2929 12.1779 89.5107 12.0318 90.8991 12.0318C93.6028 12.0318 95.5636 12.592 96.7815 13.7124C97.9994 14.8329 98.6083 16.4161 98.6083 18.4622C98.6083 18.7301 98.5718 19.2173 98.4987 19.9236C98.45 20.6057 98.3769 21.3364 98.2795 22.1158C98.2064 22.8709 98.1334 23.5895 98.0603 24.2715C98.0116 24.9535 97.9872 25.4285 97.9872 25.6964C97.9872 26.3053 98.0968 26.7438 98.316 27.0117C98.5353 27.2553 98.7788 27.4258 99.0468 27.5232C99.3391 27.6207 99.5948 27.6937 99.814 27.7424C100.033 27.7912 100.143 27.913 100.143 28.1078C100.143 28.6437 100.07 29.1917 99.9236 29.752C99.7775 30.3122 99.5339 30.8237 99.1929 31.2865C98.8763 31.7493 98.4256 32.1268 97.8411 32.4191C97.2808 32.7114 96.5866 32.8576 95.7585 32.8576C94.5893 32.8576 93.7124 32.5774 93.1279 32.0172C92.5433 31.457 92.1535 30.6775 91.9587 29.6789C91.3741 30.5314 90.6068 31.2743 89.6569 31.9076C88.7313 32.5409 87.5134 32.8576 86.0032 32.8576C85.2725 32.8576 84.5783 32.7723 83.9207 32.6018C83.2874 32.4313 82.7271 32.1512 82.24 31.7615C81.7772 31.3717 81.3997 30.8724 81.1074 30.2635C80.8394 29.6302 80.7055 28.8751 80.7055 27.9982ZM92.0683 23.833C91.435 23.833 90.8139 23.8818 90.2049 23.9792C89.596 24.0766 89.048 24.2349 88.5608 24.4542C88.098 24.649 87.7205 24.917 87.4282 25.258C87.1359 25.599 86.9897 26.0131 86.9897 26.5002C86.9897 27.0604 87.1602 27.4502 87.5012 27.6694C87.8666 27.8886 88.2563 27.9982 88.6704 27.9982C89.0601 27.9982 89.4499 27.913 89.8396 27.7424C90.2293 27.5719 90.5703 27.3162 90.8626 26.9752C91.1792 26.6098 91.4472 26.1714 91.6664 25.6599C91.8856 25.1484 92.0196 24.5394 92.0683 23.833ZM106.152 32.4922C105.397 32.4922 104.776 32.4191 104.289 32.273C103.826 32.1025 103.449 31.8711 103.156 31.5788C102.888 31.2865 102.693 30.9333 102.572 30.5192C102.474 30.0808 102.426 29.5814 102.426 29.0212C102.426 28.6559 102.438 28.1443 102.462 27.4867C102.511 26.8047 102.584 25.8791 102.681 24.7099C102.779 23.5164 102.888 22.0184 103.01 20.2159C103.156 18.3891 103.327 16.136 103.522 13.4567C103.546 12.9208 103.607 12.6042 103.704 12.5067C103.777 12.4337 103.972 12.3971 104.289 12.3971H105.714C106.469 12.3971 107.078 12.4702 107.541 12.6164C108.028 12.7625 108.405 12.9817 108.673 13.274C108.966 13.5663 109.16 13.9195 109.258 14.3336C109.38 14.7476 109.441 15.2104 109.441 15.722C109.441 16.0873 109.416 16.6354 109.367 17.3661C109.319 18.0968 109.246 19.0955 109.148 20.3621C109.075 21.6043 108.966 23.1632 108.819 25.0387C108.673 26.8899 108.491 29.1308 108.271 31.7615C108.247 32.0537 108.186 32.2486 108.089 32.346C107.991 32.4435 107.784 32.4922 107.468 32.4922H106.152ZM103.558 8.08583C103.558 7.11153 103.911 6.34426 104.618 5.78404C105.324 5.22381 106.274 4.9437 107.468 4.9437C108.515 4.9437 109.27 5.16292 109.733 5.60135C110.22 6.01543 110.464 6.57566 110.464 7.28203C110.464 8.18326 110.123 8.93835 109.441 9.54729C108.783 10.1319 107.809 10.4242 106.518 10.4242C104.545 10.4242 103.558 9.64472 103.558 8.08583ZM125.124 29.277C125.124 28.7411 125.16 28.0469 125.233 27.1944C125.331 26.3175 125.416 25.4041 125.489 24.4542C125.587 23.4799 125.672 22.5421 125.745 21.6409C125.842 20.7396 125.891 19.9845 125.891 19.3756C125.891 18.7423 125.733 18.1821 125.416 17.6949C125.124 17.1834 124.539 16.9277 123.662 16.9277C122.81 16.9277 122.103 17.1347 121.543 17.5488C120.983 17.9629 120.508 18.7179 120.118 19.814C119.753 20.9101 119.448 22.4203 119.205 24.3446C118.961 26.2688 118.73 28.7411 118.511 31.7615C118.486 32.0537 118.425 32.2486 118.328 32.346C118.231 32.4435 118.024 32.4922 117.707 32.4922H116.392C115.636 32.4922 115.015 32.4191 114.528 32.273C114.065 32.1025 113.688 31.8711 113.396 31.5788C113.128 31.2865 112.933 30.9333 112.811 30.5192C112.714 30.0808 112.665 29.5814 112.665 29.0212C112.665 28.6559 112.677 28.1443 112.701 27.4867C112.75 26.8047 112.823 25.8791 112.921 24.7099C113.018 23.5164 113.128 22.0184 113.249 20.2159C113.396 18.3891 113.566 16.136 113.761 13.4567C113.785 12.9208 113.846 12.6042 113.944 12.5067C114.017 12.4337 114.212 12.3971 114.528 12.3971H115.953C116.684 12.3971 117.281 12.4824 117.743 12.6529C118.231 12.8234 118.62 13.0548 118.913 13.3471C119.205 13.615 119.412 13.9438 119.534 14.3336C119.656 14.6989 119.729 15.0765 119.753 15.4662C120.508 14.1752 121.373 13.2862 122.347 12.799C123.321 12.2875 124.539 12.0318 126.001 12.0318C127.024 12.0318 127.913 12.1414 128.668 12.3606C129.423 12.5798 130.044 12.9574 130.531 13.4932C131.043 14.0047 131.42 14.6868 131.664 15.5393C131.907 16.3674 132.029 17.4026 132.029 18.6449C132.029 19.0346 132.005 19.5948 131.956 20.3255C131.907 21.0563 131.847 21.8601 131.773 22.737C131.7 23.5895 131.615 24.4907 131.518 25.4407C131.445 26.3662 131.372 27.2309 131.298 28.0347C131.225 28.8385 131.164 29.5449 131.116 30.1539C131.067 30.7628 131.043 31.1647 131.043 31.3596C131.043 31.8954 130.982 32.2243 130.86 32.346C130.738 32.4435 130.47 32.4922 130.056 32.4922H128.887C128.108 32.4922 127.474 32.4191 126.987 32.273C126.5 32.1268 126.122 31.9198 125.855 31.6518C125.587 31.3839 125.392 31.0551 125.27 30.6654C125.173 30.2513 125.124 29.7885 125.124 29.277Z" fill="white"/>
<defs>
<linearGradient id="paint0_linear_1324_763" x1="23" y1="5" x2="9" y2="29.5" gradientUnits="userSpaceOnUse">
<stop stop-color="#DA7C25"/>
<stop offset="0.699" stop-color="#B923E1"/>
</linearGradient>
<linearGradient id="paint1_linear_1324_763" x1="90" y1="22.5" x2="114.5" y2="41.5" gradientUnits="userSpaceOnUse">
<stop offset="0.254" stop-color="#B923E1"/>
<stop offset="0.974" stop-color="#DA7C25"/>
</linearGradient>
</defs>
</svg>
